solid CATIA STL
  facet normal  1.000000e+000  0.000000e+000  0.000000e+000
    outer loop
      vertex  1.500000e+002  5.000000e+001  0.000000e+000
      vertex  1.500000e+002  4.927354e+001  5.982892e+000
      vertex  1.500000e+002  2.500000e+001  0.000000e+000
    endloop
  endfacet
  facet normal  1.000000e+000  -0.000000e+000  0.000000e+000
    outer loop
      vertex  1.500000e+002  2.801342e+001  2.481772e+001
      vertex  1.500000e+002  2.198658e+001  2.481772e+001
      vertex  1.500000e+002  3.386512e+001  2.337541e+001
    endloop
  endfacet
  facet normal  9.999999e-001  0.000000e+000  0.000000e+000
    outer loop
      vertex  1.500000e+002  3.386512e+001  2.337541e+001
      vertex  1.500000e+002  2.198658e+001  2.481772e+001
      vertex  1.500000e+002  1.613488e+001  2.337541e+001
    endloop
  endfacet
  facet normal  1.000000e+000  -0.000000e+000  0.000000e+000
    outer loop
      vertex  1.500000e+002  3.386512e+001  2.337541e+001
      vertex  1.500000e+002  1.613488e+001  2.337541e+001
      vertex  1.500000e+002  3.920162e+001  2.057460e+001
    endloop
  endfacet
  facet normal  1.000000e+000  0.000000e+000  0.000000e+000
    outer loop
      vertex  1.500000e+002  3.920162e+001  2.057460e+001
      vertex  1.500000e+002  1.613488e+001  2.337541e+001
      vertex  1.500000e+002  1.079838e+001  2.057460e+001
    endloop
  endfacet
  facet normal  1.000000e+000  -0.000000e+000  0.000000e+000
    outer loop
      vertex  1.500000e+002  3.920162e+001  2.057460e+001
      vertex  1.500000e+002  1.079838e+001  2.057460e+001
      vertex  1.500000e+002  4.371277e+001  1.657807e+001
    endloop
  endfacet
  facet normal  1.000000e+000  0.000000e+000  0.000000e+000
    outer loop
      vertex  1.500000e+002  4.371277e+001  1.657807e+001
      vertex  1.500000e+002  1.079838e+001  2.057460e+001
      vertex  1.500000e+002  6.287231e+000  1.657807e+001
    endloop
  endfacet
  facet normal  1.000000e+000  -0.000000e+000  0.000000e+000
    outer loop
      vertex  1.500000e+002  4.371277e+001  1.657807e+001
      vertex  1.500000e+002  6.287231e+000  1.657807e+001
      vertex  1.500000e+002  4.713640e+001  1.161808e+001
    endloop
  endfacet
  facet normal  1.000000e+000  0.000000e+000  0.000000e+000
    outer loop
      vertex  1.500000e+002  4.713640e+001  1.161808e+001
      vertex  1.500000e+002  6.287231e+000  1.657807e+001
      vertex  1.500000e+002  2.863599e+000  1.161808e+001
    endloop
  endfacet
  facet normal  1.000000e+000  -0.000000e+000  0.000000e+000
    outer loop
      vertex  1.500000e+002  4.713640e+001  1.161808e+001
      vertex  1.500000e+002  2.863599e+000  1.161808e+001
      vertex  1.500000e+002  4.927354e+001  5.982892e+000
    endloop
  endfacet
  facet normal  1.000000e+000  0.000000e+000  0.000000e+000
    outer loop
      vertex  1.500000e+002  4.927354e+001  5.982892e+000
      vertex  1.500000e+002  2.863599e+000  1.161808e+001
      vertex  1.500000e+002  7.264546e-001  5.982892e+000
    endloop
  endfacet
  facet normal  1.000000e+000  -0.000000e+000  0.000000e+000
    outer loop
      vertex  1.500000e+002  4.927354e+001  5.982892e+000
      vertex  1.500000e+002  7.264546e-001  5.982892e+000
      vertex  1.500000e+002  2.500000e+001  0.000000e+000
    endloop
  endfacet
  facet normal  1.000000e+000  0.000000e+000  0.000000e+000
    outer loop
      vertex  1.500000e+002  2.500000e+001  0.000000e+000
      vertex  1.500000e+002  7.264546e-001  5.982892e+000
      vertex  1.500000e+002  0.000000e+000  3.061516e-015
    endloop
  endfacet
  facet normal  0.000000e+000  9.927089e-001 -1.205367e-001
    outer loop
      vertex  2.000000e+002  0.000000e+000  3.061516e-015
      vertex  1.500000e+002  0.000000e+000  3.061516e-015
      vertex  2.000000e+002  7.264546e-001  5.982892e+000
    endloop
  endfacet
  facet normal  0.000000e+000  9.927089e-001 -1.205367e-001
    outer loop
      vertex  2.000000e+002  7.264546e-001  5.982892e+000
      vertex  1.500000e+002  0.000000e+000  3.061516e-015
      vertex  1.500000e+002  7.264546e-001  5.982892e+000
    endloop
  endfacet
  facet normal  0.000000e+000  9.350163e-001 -3.546049e-001
    outer loop
      vertex  2.000000e+002  7.264546e-001  5.982892e+000
      vertex  1.500000e+002  7.264546e-001  5.982892e+000
      vertex  2.000000e+002  2.863599e+000  1.161808e+001
    endloop
  endfacet
  facet normal  0.000000e+000  9.350163e-001 -3.546049e-001
    outer loop
      vertex  2.000000e+002  2.863599e+000  1.161808e+001
      vertex  1.500000e+002  7.264546e-001  5.982892e+000
      vertex  1.500000e+002  2.863599e+000  1.161808e+001
    endloop
  endfacet
  facet normal  0.000000e+000  8.229839e-001 -5.680649e-001
    outer loop
      vertex  2.000000e+002  2.863599e+000  1.161808e+001
      vertex  1.500000e+002  2.863599e+000  1.161808e+001
      vertex  2.000000e+002  6.287231e+000  1.657807e+001
    endloop
  endfacet
  facet normal  0.000000e+000  8.229839e-001 -5.680649e-001
    outer loop
      vertex  2.000000e+002  6.287231e+000  1.657807e+001
      vertex  1.500000e+002  2.863599e+000  1.161808e+001
      vertex  1.500000e+002  6.287231e+000  1.657807e+001
    endloop
  endfacet
  facet normal  0.000000e+000  6.631227e-001 -7.485108e-001
    outer loop
      vertex  2.000000e+002  6.287231e+000  1.657807e+001
      vertex  1.500000e+002  6.287231e+000  1.657807e+001
      vertex  2.000000e+002  1.079838e+001  2.057460e+001
    endloop
  endfacet
  facet normal  0.000000e+000  6.631227e-001 -7.485108e-001
    outer loop
      vertex  2.000000e+002  1.079838e+001  2.057460e+001
      vertex  1.500000e+002  6.287231e+000  1.657807e+001
      vertex  1.500000e+002  1.079838e+001  2.057460e+001
    endloop
  endfacet
  facet normal  0.000000e+000  4.647233e-001 -8.854560e-001
    outer loop
      vertex  2.000000e+002  1.079838e+001  2.057460e+001
      vertex  1.500000e+002  1.079838e+001  2.057460e+001
      vertex  2.000000e+002  1.613488e+001  2.337541e+001
    endloop
  endfacet
  facet normal  0.000000e+000  4.647233e-001 -8.854560e-001
    outer loop
      vertex  2.000000e+002  1.613488e+001  2.337541e+001
      vertex  1.500000e+002  1.079838e+001  2.057460e+001
      vertex  1.500000e+002  1.613488e+001  2.337541e+001
    endloop
  endfacet
  facet normal  0.000000e+000  2.393157e-001 -9.709418e-001
    outer loop
      vertex  2.000000e+002  1.613488e+001  2.337541e+001
      vertex  1.500000e+002  1.613488e+001  2.337541e+001
      vertex  2.000000e+002  2.198658e+001  2.481772e+001
    endloop
  endfacet
  facet normal  0.000000e+000  2.393157e-001 -9.709418e-001
    outer loop
      vertex  2.000000e+002  2.198658e+001  2.481772e+001
      vertex  1.500000e+002  1.613488e+001  2.337541e+001
      vertex  1.500000e+002  2.198658e+001  2.481772e+001
    endloop
  endfacet
  facet normal  0.000000e+000  0.000000e+000 -1.000000e+000
    outer loop
      vertex  2.000000e+002  2.198658e+001  2.481772e+001
      vertex  1.500000e+002  2.198658e+001  2.481772e+001
      vertex  2.000000e+002  2.801342e+001  2.481772e+001
    endloop
  endfacet
  facet normal  -0.000000e+000  0.000000e+000 -1.000000e+000
    outer loop
      vertex  2.000000e+002  2.801342e+001  2.481772e+001
      vertex  1.500000e+002  2.198658e+001  2.481772e+001
      vertex  1.500000e+002  2.801342e+001  2.481772e+001
    endloop
  endfacet
  facet normal  0.000000e+000 -2.393156e-001 -9.709418e-001
    outer loop
      vertex  2.000000e+002  2.801342e+001  2.481772e+001
      vertex  1.500000e+002  2.801342e+001  2.481772e+001
      vertex  2.000000e+002  3.386512e+001  2.337541e+001
    endloop
  endfacet
  facet normal  -0.000000e+000 -2.393156e-001 -9.709418e-001
    outer loop
      vertex  2.000000e+002  3.386512e+001  2.337541e+001
      vertex  1.500000e+002  2.801342e+001  2.481772e+001
      vertex  1.500000e+002  3.386512e+001  2.337541e+001
    endloop
  endfacet
  facet normal  0.000000e+000 -4.647234e-001 -8.854558e-001
    outer loop
      vertex  2.000000e+002  3.386512e+001  2.337541e+001
      vertex  1.500000e+002  3.386512e+001  2.337541e+001
      vertex  2.000000e+002  3.920162e+001  2.057460e+001
    endloop
  endfacet
  facet normal  -0.000000e+000 -4.647234e-001 -8.854558e-001
    outer loop
      vertex  2.000000e+002  3.920162e+001  2.057460e+001
      vertex  1.500000e+002  3.386512e+001  2.337541e+001
      vertex  1.500000e+002  3.920162e+001  2.057460e+001
    endloop
  endfacet
  facet normal  0.000000e+000 -6.631227e-001 -7.485108e-001
    outer loop
      vertex  2.000000e+002  3.920162e+001  2.057460e+001
      vertex  1.500000e+002  3.920162e+001  2.057460e+001
      vertex  2.000000e+002  4.371277e+001  1.657807e+001
    endloop
  endfacet
  facet normal  -0.000000e+000 -6.631227e-001 -7.485108e-001
    outer loop
      vertex  2.000000e+002  4.371277e+001  1.657807e+001
      vertex  1.500000e+002  3.920162e+001  2.057460e+001
      vertex  1.500000e+002  4.371277e+001  1.657807e+001
    endloop
  endfacet
  facet normal  0.000000e+000 -8.229837e-001 -5.680650e-001
    outer loop
      vertex  2.000000e+002  4.371277e+001  1.657807e+001
      vertex  1.500000e+002  4.371277e+001  1.657807e+001
      vertex  2.000000e+002  4.713640e+001  1.161808e+001
    endloop
  endfacet
  facet normal  -0.000000e+000 -8.229837e-001 -5.680650e-001
    outer loop
      vertex  2.000000e+002  4.713640e+001  1.161808e+001
      vertex  1.500000e+002  4.371277e+001  1.657807e+001
      vertex  1.500000e+002  4.713640e+001  1.161808e+001
    endloop
  endfacet
  facet normal  0.000000e+000 -9.350164e-001 -3.546045e-001
    outer loop
      vertex  2.000000e+002  4.713640e+001  1.161808e+001
      vertex  1.500000e+002  4.713640e+001  1.161808e+001
      vertex  2.000000e+002  4.927354e+001  5.982892e+000
    endloop
  endfacet
  facet normal  -0.000000e+000 -9.350164e-001 -3.546045e-001
    outer loop
      vertex  2.000000e+002  4.927354e+001  5.982892e+000
      vertex  1.500000e+002  4.713640e+001  1.161808e+001
      vertex  1.500000e+002  4.927354e+001  5.982892e+000
    endloop
  endfacet
  facet normal  0.000000e+000 -9.927089e-001 -1.205369e-001
    outer loop
      vertex  2.000000e+002  4.927354e+001  5.982892e+000
      vertex  1.500000e+002  4.927354e+001  5.982892e+000
      vertex  2.000000e+002  5.000000e+001  0.000000e+000
    endloop
  endfacet
  facet normal  -0.000000e+000 -9.927089e-001 -1.205369e-001
    outer loop
      vertex  2.000000e+002  5.000000e+001  0.000000e+000
      vertex  1.500000e+002  4.927354e+001  5.982892e+000
      vertex  1.500000e+002  5.000000e+001  0.000000e+000
    endloop
  endfacet
  facet normal  1.000000e+000  0.000000e+000  0.000000e+000
    outer loop
      vertex  2.000000e+002  0.000000e+000  5.000000e+001
      vertex  2.000000e+002  0.000000e+000  3.061516e-015
      vertex  2.000000e+002  7.264546e-001  5.982892e+000
    endloop
  endfacet
  facet normal  1.000000e+000  0.000000e+000  -0.000000e+000
    outer loop
      vertex  2.000000e+002  0.000000e+000  5.000000e+001
      vertex  2.000000e+002  7.264546e-001  5.982892e+000
      vertex  2.000000e+002  2.863599e+000  1.161808e+001
    endloop
  endfacet
  facet normal  1.000000e+000  0.000000e+000  -0.000000e+000
    outer loop
      vertex  2.000000e+002  0.000000e+000  5.000000e+001
      vertex  2.000000e+002  2.863599e+000  1.161808e+001
      vertex  2.000000e+002  6.287231e+000  1.657807e+001
    endloop
  endfacet
  facet normal  1.000000e+000  0.000000e+000  -0.000000e+000
    outer loop
      vertex  2.000000e+002  0.000000e+000  5.000000e+001
      vertex  2.000000e+002  6.287231e+000  1.657807e+001
      vertex  2.000000e+002  1.079838e+001  2.057460e+001
    endloop
  endfacet
  facet normal  1.000000e+000  0.000000e+000  -0.000000e+000
    outer loop
      vertex  2.000000e+002  0.000000e+000  5.000000e+001
      vertex  2.000000e+002  1.079838e+001  2.057460e+001
      vertex  2.000000e+002  1.613488e+001  2.337541e+001
    endloop
  endfacet
  facet normal  1.000000e+000  0.000000e+000  -0.000000e+000
    outer loop
      vertex  2.000000e+002  0.000000e+000  5.000000e+001
      vertex  2.000000e+002  1.613488e+001  2.337541e+001
      vertex  2.000000e+002  2.198658e+001  2.481772e+001
    endloop
  endfacet
  facet normal  1.000000e+000  0.000000e+000  -0.000000e+000
    outer loop
      vertex  2.000000e+002  0.000000e+000  5.000000e+001
      vertex  2.000000e+002  2.198658e+001  2.481772e+001
      vertex  2.000000e+002  5.000000e+001  5.000000e+001
    endloop
  endfacet
  facet normal  1.000000e+000  0.000000e+000  0.000000e+000
    outer loop
      vertex  2.000000e+002  5.000000e+001  5.000000e+001
      vertex  2.000000e+002  2.198658e+001  2.481772e+001
      vertex  2.000000e+002  2.801342e+001  2.481772e+001
    endloop
  endfacet
  facet normal  1.000000e+000  -0.000000e+000  0.000000e+000
    outer loop
      vertex  2.000000e+002  5.000000e+001  5.000000e+001
      vertex  2.000000e+002  2.801342e+001  2.481772e+001
      vertex  2.000000e+002  3.386512e+001  2.337541e+001
    endloop
  endfacet
  facet normal  1.000000e+000  -0.000000e+000  0.000000e+000
    outer loop
      vertex  2.000000e+002  5.000000e+001  5.000000e+001
      vertex  2.000000e+002  3.386512e+001  2.337541e+001
      vertex  2.000000e+002  3.920162e+001  2.057460e+001
    endloop
  endfacet
  facet normal  1.000000e+000  -0.000000e+000  0.000000e+000
    outer loop
      vertex  2.000000e+002  5.000000e+001  5.000000e+001
      vertex  2.000000e+002  3.920162e+001  2.057460e+001
      vertex  2.000000e+002  4.371277e+001  1.657807e+001
    endloop
  endfacet
  facet normal  1.000000e+000  -0.000000e+000  0.000000e+000
    outer loop
      vertex  2.000000e+002  5.000000e+001  5.000000e+001
      vertex  2.000000e+002  4.371277e+001  1.657807e+001
      vertex  2.000000e+002  4.713640e+001  1.161808e+001
    endloop
  endfacet
  facet normal  1.000000e+000  -0.000000e+000  0.000000e+000
    outer loop
      vertex  2.000000e+002  5.000000e+001  5.000000e+001
      vertex  2.000000e+002  4.713640e+001  1.161808e+001
      vertex  2.000000e+002  4.927354e+001  5.982892e+000
    endloop
  endfacet
  facet normal  1.000000e+000  -0.000000e+000  0.000000e+000
    outer loop
      vertex  2.000000e+002  5.000000e+001  5.000000e+001
      vertex  2.000000e+002  4.927354e+001  5.982892e+000
      vertex  2.000000e+002  5.000000e+001  0.000000e+000
    endloop
  endfacet
  facet normal  -0.000000e+000  0.000000e+000 -1.000000e+000
    outer loop
      vertex  0.000000e+000  5.000000e+001  0.000000e+000
      vertex  1.500000e+002  5.000000e+001  0.000000e+000
      vertex  0.000000e+000  0.000000e+000  0.000000e+000
    endloop
  endfacet
  facet normal  0.000000e+000  0.000000e+000 -1.000000e+000
    outer loop
      vertex  0.000000e+000  0.000000e+000  0.000000e+000
      vertex  1.500000e+002  5.000000e+001  0.000000e+000
      vertex  1.500000e+002  2.500000e+001  0.000000e+000
    endloop
  endfacet
  facet normal  2.041011e-017 -1.224606e-016 -1.000000e+000
    outer loop
      vertex  0.000000e+000  0.000000e+000  0.000000e+000
      vertex  1.500000e+002  2.500000e+001  0.000000e+000
      vertex  1.500000e+002  0.000000e+000  3.061516e-015
    endloop
  endfacet
  facet normal  0.000000e+000  1.000000e+000  0.000000e+000
    outer loop
      vertex  0.000000e+000  5.000000e+001  0.000000e+000
      vertex  0.000000e+000  5.000000e+001  5.000000e+001
      vertex  1.500000e+002  5.000000e+001  0.000000e+000
    endloop
  endfacet
  facet normal  0.000000e+000  1.000000e+000  -0.000000e+000
    outer loop
      vertex  1.500000e+002  5.000000e+001  0.000000e+000
      vertex  0.000000e+000  5.000000e+001  5.000000e+001
      vertex  2.000000e+002  5.000000e+001  5.000000e+001
    endloop
  endfacet
  facet normal  0.000000e+000  1.000000e+000  0.000000e+000
    outer loop
      vertex  1.500000e+002  5.000000e+001  0.000000e+000
      vertex  2.000000e+002  5.000000e+001  5.000000e+001
      vertex  2.000000e+002  5.000000e+001  0.000000e+000
    endloop
  endfacet
  facet normal  0.000000e+000 -1.000000e+000  -0.000000e+000
    outer loop
      vertex  2.000000e+002  0.000000e+000  3.061516e-015
      vertex  2.000000e+002  0.000000e+000  5.000000e+001
      vertex  1.500000e+002  0.000000e+000  3.061516e-015
    endloop
  endfacet
  facet normal  0.000000e+000 -1.000000e+000  0.000000e+000
    outer loop
      vertex  1.500000e+002  0.000000e+000  3.061516e-015
      vertex  2.000000e+002  0.000000e+000  5.000000e+001
      vertex  0.000000e+000  0.000000e+000  5.000000e+001
    endloop
  endfacet
  facet normal  0.000000e+000 -1.000000e+000  0.000000e+000
    outer loop
      vertex  1.500000e+002  0.000000e+000  3.061516e-015
      vertex  0.000000e+000  0.000000e+000  5.000000e+001
      vertex  0.000000e+000  0.000000e+000  0.000000e+000
    endloop
  endfacet
  facet normal  0.000000e+000  0.000000e+000  1.000000e+000
    outer loop
      vertex  0.000000e+000  0.000000e+000  5.000000e+001
      vertex  2.000000e+002  0.000000e+000  5.000000e+001
      vertex  0.000000e+000  5.000000e+001  5.000000e+001
    endloop
  endfacet
  facet normal  -0.000000e+000  0.000000e+000  1.000000e+000
    outer loop
      vertex  0.000000e+000  5.000000e+001  5.000000e+001
      vertex  2.000000e+002  0.000000e+000  5.000000e+001
      vertex  2.000000e+002  5.000000e+001  5.000000e+001
    endloop
  endfacet
  facet normal -1.000000e+000  0.000000e+000  0.000000e+000
    outer loop
      vertex  0.000000e+000  5.000000e+001  0.000000e+000
      vertex  0.000000e+000  0.000000e+000  0.000000e+000
      vertex  0.000000e+000  5.000000e+001  5.000000e+001
    endloop
  endfacet
  facet normal -1.000000e+000  -0.000000e+000  0.000000e+000
    outer loop
      vertex  0.000000e+000  5.000000e+001  5.000000e+001
      vertex  0.000000e+000  0.000000e+000  0.000000e+000
      vertex  0.000000e+000  0.000000e+000  5.000000e+001
    endloop
  endfacet
endsolid CATIA STL
